<?xml version="1.0" standalone="no"?>
<!DOCTYPE svg PUBLIC "-//W3C//DTD SVG 20010904//EN"
 "http://www.w3.org/TR/2001/REC-SVG-20010904/DTD/svg10.dtd">
<svg version="1.0" xmlns="http://www.w3.org/2000/svg"
 width="512.000000pt" height="512.000000pt" viewBox="0 0 512.000000 512.000000"
 preserveAspectRatio="xMidYMid meet">

<g transform="translate(0.000000,512.000000) scale(0.100000,-0.100000)"
fill="#000000" stroke="none">
<path d="M2321 5110 c-868 -84 -1644 -610 -2037 -1382 -139 -273 -221 -536
-266 -853 -20 -140 -17 -504 6 -660 39 -278 121 -541 247 -794 249 -502 647
-900 1150 -1150 815 -406 1779 -350 2539 147 297 194 579 482 771 788 74 116
184 342 234 478 51 138 110 376 131 531 23 157 26 521 6 660 -59 415 -191 769
-410 1099 -92 140 -185 254 -315 385 -398 403 -895 653 -1462 737 -122 18
-466 26 -594 14z m524 -221 c508 -63 974 -286 1344 -644 392 -379 629 -857
702 -1410 18 -135 15 -438 -5 -580 -73 -519 -290 -964 -650 -1333 -369 -379
-835 -613 -1371 -688 -142 -20 -445 -23 -580 -5 -526 69 -982 287 -1354 646
-394 381 -631 859 -702 1415 -16 121 -16 417 0 540 53 424 208 807 463 1148
82 110 298 331 403 414 502 395 1130 573 1750 497z"/>
<path d="M2885 4150 c-179 -36 -328 -161 -395 -330 -48 -122 -47 -265 4 -389
l23 -57 -153 -127 c-84 -70 -155 -127 -159 -127 -3 0 -29 18 -58 39 -222 166
-526 192 -775 67 -189 -95 -319 -250 -384 -456 -19 -63 -23 -96 -23 -210 0
-114 4 -147 23 -210 81 -257 269 -439 529 -512 106 -29 266 -29 376 1 101 27
219 88 290 152 31 28 61 49 66 47 5 -2 103 -70 218 -152 l209 -149 -4 -116
c-3 -87 0 -133 12 -181 75 -293 332 -494 631 -493 179 1 322 60 451 188 139
137 202 302 191 494 -9 165 -68 299 -183 416 -280 286 -754 248 -990 -79 l-21
-29 -194 138 c-107 76 -196 140 -198 141 -2 2 8 30 22 62 82 182 76 418 -17
605 l-33 68 141 117 c78 64 148 122 156 129 12 9 26 5 70 -23 234 -148 556
-81 714 149 147 213 120 495 -63 678 -127 127 -305 183 -476 149z m178 -215
c127 -33 210 -121 237 -251 30 -142 -59 -302 -196 -353 -260 -98 -511 153
-413 413 34 92 127 172 226 195 56 13 83 13 146 -4z m-1223 -860 c224 -59 382
-252 397 -485 15 -229 -133 -452 -352 -532 -83 -30 -232 -36 -311 -13 -243 71
-398 271 -398 515 0 294 233 529 524 530 47 0 110 -7 140 -15z m1533 -1055
c83 -13 159 -51 222 -111 92 -87 135 -185 135 -309 0 -124 -43 -222 -135 -309
-247 -234 -650 -95 -708 243 -22 132 22 267 120 365 64 63 129 99 213 117 70
16 83 16 153 4z"/>
</g>
</svg>
